<?xml version="1.0" encoding="utf-8"?>
<!-- Svg Vector Icons : http://www.onlinewebfonts.com/icon -->
<!DOCTYPE svg PUBLIC "-//W3C//DTD SVG 1.1//EN" "http://www.w3.org/Graphics/SVG/1.1/DTD/svg11.dtd">
<svg version="1.1" xmlns="http://www.w3.org/2000/svg" xmlns:xlink="http://www.w3.org/1999/xlink" x="0px" y="0px" viewBox="0 0 256 256" enable-background="new 0 0 256 256" xml:space="preserve">
<metadata> Svg Vector Icons : http://www.onlinewebfonts.com/icon </metadata>
<g><g><path fill="#000000" d="M217.9,10.7h-54.7v14.1h54.7c7.8,0,14.1,6.3,14.1,14.1v54H246v-54C246,23.3,233.4,10.7,217.9,10.7z"/><path fill="#000000" d="M24.1,38.9c0-7.8,6.3-14.1,14.1-14.1h54.7V10.7H38.1C22.6,10.7,10,23.3,10,38.9v54h14.1V38.9z"/><path fill="#000000" d="M24.1,217.2v-54H10v54c0,15.5,12.6,28.1,28.1,28.1h54.7v-14.1H38.1C30.4,231.2,24.1,224.9,24.1,217.2z"/><path fill="#000000" d="M231.9,217.2c0,7.8-6.3,14.1-14.1,14.1h-54.7v14.1h54.7c15.5,0,28.1-12.6,28.1-28.1v-54h-14.1V217.2z"/><path fill="#000000" d="M10.8,121h234.4V135H10.8V121L10.8,121z"/></g></g>
</svg>